<?xml version="1.0" encoding="utf-8"?>
<!-- Generator: Adobe Illustrator 26.5.0, SVG Export Plug-In . SVG Version: 6.00 Build 0)  -->
<svg version="1.1" id="Layer_1" xmlns="http://www.w3.org/2000/svg" xmlns:xlink="http://www.w3.org/1999/xlink" x="0px" y="0px"
	 viewBox="0 0 1000 1000" style="enable-background:new 0 0 1000 1000;" xml:space="preserve">
<style type="text/css">
	.st0{fill:none;stroke:#7985B9;stroke-width:0.2146;stroke-miterlimit:10;}
	.st1{fill:url(#SVGID_1_);}
	.st2{fill:#225FAC;}
	.st3{fill:#00B2E2;}
	.st4{fill:url(#SVGID_00000029033808392023032410000005056302221622230181_);}
	.st5{opacity:0.5;fill:url(#SVGID_00000097461833442543830780000011506996742698859685_);}
	.st6{opacity:0.5;fill:url(#SVGID_00000020391307593316200640000001759233824674192529_);}
</style>
<g>
	<path class="st0" d="M200.16,750c-16.44-19.34-30.32-40.93-41.07-64.26C170.84,708.47,184.61,729.94,200.16,750z"/>
	
		<linearGradient id="SVGID_1_" gradientUnits="userSpaceOnUse" x1="194.476" y1="453.1633" x2="872.0167" y2="453.1633" gradientTransform="matrix(8.724216e-03 1 -1 8.724216e-03 877.3511 -153.3135)">
		<stop  offset="0" style="stop-color:#00B2E2"/>
		<stop  offset="0.173" style="stop-color:#009ACE"/>
		<stop  offset="0.3803" style="stop-color:#0580BB"/>
		<stop  offset="0.5738" style="stop-color:#3D6DAC"/>
		<stop  offset="0.7477" style="stop-color:#4E5EA2"/>
		<stop  offset="0.8956" style="stop-color:#56549C"/>
		<stop  offset="1" style="stop-color:#58509A"/>
	</linearGradient>
	<path class="st1" d="M368.24,568.29c0,19.17,1.93,37.92,5.6,56.01c-29.55-35.61-47.33-81.32-47.33-131.19
		c0-94.75,64.14-174.48,151.35-198.26c18.69,4.32,36.64,10.55,53.68,18.4C435.14,357.72,368.24,455.2,368.24,568.29z"/>
	<path class="st2" d="M834.71,783.9c-76.37,79.45-183.72,128.94-302.65,128.94c-135,0-255.12-63.77-331.89-162.85
		c51.49,60.59,128.23,99.02,213.96,99.01c41.93,0,81.69-9.22,117.42-25.69c76.54-35.3,134.49-104.05,155.08-187.51l145.35,145.32
		L834.71,783.9z"/>
	<path class="st3" d="M834.22,201.81l-99.21,99.21l-52.31,52.31l-45.08,45.08c-27.71-36.38-64.09-65.79-106.07-85.16
		c-17.04-7.85-34.99-14.08-53.68-18.4c-20.48-4.75-41.81-7.28-63.74-7.28c-155.05,0-280.72,125.7-280.72,280.72
		c0,41.93,9.22,81.72,25.69,117.45c-29.87-57.69-46.73-123.19-46.73-192.63c0-231.79,187.9-419.73,419.7-419.73
		C650.73,73.39,757.88,122.65,834.22,201.81z"/>
	
		<linearGradient id="SVGID_00000086689246024477811340000006187357180106712489_" gradientUnits="userSpaceOnUse" x1="1202.6398" y1="473.9146" x2="396.7664" y2="473.9146" gradientTransform="matrix(8.724216e-03 1 -1 8.724216e-03 877.3511 -153.3135)">
		<stop  offset="0" style="stop-color:#00B2E2"/>
		<stop  offset="0.173" style="stop-color:#009ACE"/>
		<stop  offset="0.3803" style="stop-color:#0580BB"/>
		<stop  offset="0.5738" style="stop-color:#3D6DAC"/>
		<stop  offset="0.7477" style="stop-color:#4E5EA2"/>
		<stop  offset="0.8956" style="stop-color:#56549C"/>
		<stop  offset="1" style="stop-color:#58509A"/>
	</linearGradient>
	<path style="fill:url(#SVGID_00000086689246024477811340000006187357180106712489_);" d="M686.62,635.82
		c-20.59,83.46-78.54,152.21-155.08,187.51c-35.73,16.47-75.49,25.69-117.42,25.69c-85.73,0-162.48-38.43-213.96-99.01
		c-15.56-20.05-29.33-41.53-41.07-64.26c-16.47-35.73-25.69-75.52-25.69-117.45c0-155.02,125.67-280.72,280.72-280.72
		c21.93,0,43.26,2.53,63.74,7.28c-87.21,23.78-151.35,103.51-151.35,198.26c0,49.86,17.78,95.57,47.33,131.19
		c37.69,45.43,94.58,74.35,158.21,74.35c59.79,0,113.58-25.54,151.15-66.28L686.62,635.82z"/>
	<g>
		
			<radialGradient id="SVGID_00000094594720141916769650000006063171251917262479_" cx="1099.0503" cy="985.7114" r="475.2193" gradientTransform="matrix(1 -2.454721e-05 2.454721e-05 1 -684.9222 -238.1051)" gradientUnits="userSpaceOnUse">
			<stop  offset="0.4935" style="stop-color:#FFFFFF"/>
			<stop  offset="0.5482" style="stop-color:#FAFAFA"/>
			<stop  offset="0.6109" style="stop-color:#ECECEC"/>
			<stop  offset="0.6775" style="stop-color:#D5D5D5"/>
			<stop  offset="0.747" style="stop-color:#B5B5B5"/>
			<stop  offset="0.8185" style="stop-color:#8C8C8C"/>
			<stop  offset="0.8919" style="stop-color:#595959"/>
			<stop  offset="0.9654" style="stop-color:#1E1E1E"/>
			<stop  offset="1" style="stop-color:#000000"/>
		</radialGradient>
		<path style="opacity:0.5;fill:url(#SVGID_00000094594720141916769650000006063171251917262479_);" d="M477.87,294.86
			c-20.48-4.75-41.81-7.28-63.74-7.28c-155.05,0-280.72,125.7-280.72,280.72c0,38.41,7.75,75.01,21.71,108.35
			c39.71-68.45,100.33-155.3,172.06-199.77c21.48-13.32,43.95-22.8,67.15-26.88c28.04-60.25,76.84-108.9,137.22-136.74
			C514.51,305.41,496.56,299.18,477.87,294.86z"/>
		
			<linearGradient id="SVGID_00000176003624267265030130000010974261265076850623_" gradientUnits="userSpaceOnUse" x1="867.3232" y1="972.8585" x2="1371.4727" y2="972.8585" gradientTransform="matrix(1 -2.454721e-05 2.454721e-05 1 -684.9222 -238.1051)">
			<stop  offset="0.4935" style="stop-color:#FFFFFF"/>
			<stop  offset="0.5482" style="stop-color:#FAFAFA"/>
			<stop  offset="0.6109" style="stop-color:#ECECEC"/>
			<stop  offset="0.6775" style="stop-color:#D5D5D5"/>
			<stop  offset="0.747" style="stop-color:#B5B5B5"/>
			<stop  offset="0.8185" style="stop-color:#8C8C8C"/>
			<stop  offset="0.8919" style="stop-color:#595959"/>
			<stop  offset="0.9654" style="stop-color:#1E1E1E"/>
			<stop  offset="1" style="stop-color:#000000"/>
		</linearGradient>
		<path style="opacity:0.5;fill:url(#SVGID_00000176003624267265030130000010974261265076850623_);" d="M414.12,849.01
			c41.93,0,81.69-9.22,117.42-25.69c76.54-35.3,134.49-104.05,155.08-187.51l-3.41-3.44c-37.58,40.73-91.36,66.28-151.15,66.28
			c-63.63,0-120.52-28.93-158.21-74.35c-1.03-1.24-2.01-2.52-3.01-3.79c-61.81,34.04-131.29,72.84-188.38,104.85
			c5.61,8.43,11.51,16.65,17.71,24.63C251.65,810.58,328.39,849.01,414.12,849.01z"/>
	</g>
</g>
</svg>
